<?xml version="1.0" encoding="UTF-8"?>
<svg version="1.1" xmlns="http://www.w3.org/2000/svg" width="1181" height="945">
<path d="M0 0 C1.04351624 -0.00705963 2.08703247 -0.01411926 3.16217041 -0.02139282 C46.48761137 -0.24792213 46.48761137 -0.24792213 66.71875 3.203125 C67.90597656 3.39648438 69.09320313 3.58984375 70.31640625 3.7890625 C122.4365733 12.44902872 172.84099235 32.03015913 215.71875 63.203125 C216.38213379 63.68249512 217.04551758 64.16186523 217.72900391 64.65576172 C239.10077398 80.16678795 259.630197 98.01411724 276.71875 118.203125 C277.51539063 119.110625 278.31203125 120.018125 279.1328125 120.953125 C286.95581961 129.9249251 293.90064044 139.45386554 300.71875 149.203125 C301.38173096 150.14212646 301.38173096 150.14212646 302.05810547 151.10009766 C338.21960467 202.53951257 357.2666281 263.87341833 361.71875 326.203125 C339.60875 326.203125 317.49875 326.203125 294.71875 326.203125 C297.60581292 334.86431375 299.47400021 338.3732918 306.71875 343.203125 C309.43322137 344.10794879 311.04552717 344.33656916 313.8379364 344.36134338 C315.09101986 344.37600442 315.09101986 344.37600442 316.36941814 344.39096165 C317.74442848 344.39961703 317.74442848 344.39961703 319.1472168 344.40844727 C320.12888478 344.41847999 321.11055277 344.42851271 322.12196827 344.43884945 C325.30394431 344.47026606 328.4859328 344.49501872 331.66796875 344.51953125 C333.63074147 344.53793177 335.59351015 344.55676829 337.55627441 344.5760498 C344.83955179 344.64453124 352.12290664 344.70456238 359.40625 344.765625 C383.8159375 344.9821875 383.8159375 344.9821875 408.71875 345.203125 C408.71875 390.083125 408.71875 434.963125 408.71875 481.203125 C363.83875 481.203125 318.95875 481.203125 272.71875 481.203125 C272.71875 455.463125 272.71875 429.723125 272.71875 403.203125 C282.93972656 403.16445313 282.93972656 403.16445313 293.3671875 403.125 C297.69665166 403.09981894 302.02604684 403.07347625 306.35546875 403.04296875 C313.21989154 402.99470827 320.08415456 402.95063544 326.94873047 402.93212891 C332.4861908 402.91693027 338.02323176 402.88242733 343.56050491 402.83481598 C345.66784637 402.82003531 347.77524771 402.8120859 349.88264084 402.81124115 C352.84587509 402.80885978 355.80796131 402.78168584 358.77099609 402.74902344 C359.63271423 402.7540538 360.49443237 402.75908417 361.38226318 402.76426697 C368.31289892 402.64689145 375.34018705 401.17901786 380.67207909 396.48260117 C388.49351125 388.1160036 387.07797561 378.7370641 387.71875 367.203125 C356.69875 367.203125 325.67875 367.203125 293.71875 367.203125 C293.71875 375.453125 293.71875 383.703125 293.71875 392.203125 C286.78875 392.203125 279.85875 392.203125 272.71875 392.203125 C272.71875 370.423125 272.71875 348.643125 272.71875 326.203125 C270.40875 326.203125 268.09875 326.203125 265.71875 326.203125 C265.71875 381.643125 265.71875 437.083125 265.71875 494.203125 C419.49875 494.203125 573.27875 494.203125 731.71875 494.203125 C731.71875 501.133125 731.71875 508.063125 731.71875 515.203125 C571.00875 515.203125 410.29875 515.203125 244.71875 515.203125 C244.71875 452.833125 244.71875 390.463125 244.71875 326.203125 C242.40875 326.203125 240.09875 326.203125 237.71875 326.203125 C237.71875 377.353125 237.71875 428.503125 237.71875 481.203125 C192.83875 481.203125 147.95875 481.203125 101.71875 481.203125 C101.71875 455.463125 101.71875 429.723125 101.71875 403.203125 C108.54433594 403.16574219 115.36992187 403.12835937 122.40234375 403.08984375 C126.73635298 403.05955413 131.07032164 403.0283997 135.40429688 402.99414062 C142.27756669 402.93989105 149.15075626 402.88877788 156.02416992 402.85668945 C161.56805359 402.83060711 167.11166655 402.79016949 172.65538216 402.73993874 C174.76634405 402.72330341 176.87735273 402.71176843 178.9883709 402.70551109 C181.9540405 402.69583381 184.9190227 402.66773086 187.88452148 402.63549805 C189.18249161 402.63765068 189.18249161 402.63765068 190.50668335 402.6398468 C197.15643513 402.5381855 203.7371648 401.58242004 209.05859375 397.3359375 C209.58582031 396.67335938 210.11304688 396.01078125 210.65625 395.328125 C211.20152344 394.67070313 211.74679687 394.01328125 212.30859375 393.3359375 C217.89830404 384.88169423 216.12482276 378.48774249 216.71875 367.203125 C186.02875 367.203125 155.33875 367.203125 123.71875 367.203125 C123.71875 375.453125 123.71875 383.703125 123.71875 392.203125 C116.45875 392.203125 109.19875 392.203125 101.71875 392.203125 C101.71875 376.693125 101.71875 361.183125 101.71875 345.203125 C108.7725 345.17734375 115.82625 345.1515625 123.09375 345.125 C127.56904651 345.09982617 132.04427581 345.07348905 136.51953125 345.04296875 C143.61898026 344.99466257 150.71827363 344.95060693 157.81787109 344.93212891 C163.54334837 344.91695742 169.26841783 344.88250234 174.99371338 344.83481598 C177.17527721 344.8200074 179.35689926 344.81208429 181.53851318 344.81124115 C184.6003337 344.80886825 187.66103019 344.78176136 190.72265625 344.74902344 C191.61961716 344.7540538 192.51657806 344.75908417 193.4407196 344.76426697 C200.88762141 344.64150925 206.17429535 342.69103622 211.53125 337.453125 C214.2846176 333.63315338 214.2846176 333.63315338 216.71875 326.203125 C35.54875 326.203125 -145.62125 326.203125 -332.28125 326.203125 C-329.96185272 298.3703576 -329.96185272 298.3703576 -327.25390625 284.9765625 C-326.1731039 278.88476746 -325.90253924 275.16280756 -329.44677734 269.921875 C-330.28125 268.203125 -330.28125 268.203125 -330.11547852 266.07543945 C-329.28125 264.203125 -329.28125 264.203125 -325.97265625 262.74609375 C-322.16816007 260.74531125 -321.34282788 258.53800119 -320.05859375 254.50390625 C-319.41960759 252.18139875 -318.8075608 249.85135749 -318.21875 247.515625 C-317.55429296 245.07716538 -316.88631865 242.63966147 -316.21484375 240.203125 C-315.73120361 238.41648437 -315.73120361 238.41648437 -315.23779297 236.59375 C-313.94064028 231.99577742 -312.41428423 227.50362801 -310.78125 223.015625 C-310.39827759 221.95758667 -310.39827759 221.95758667 -310.00756836 220.87817383 C-309.43830792 219.31755644 -308.86092511 217.75990399 -308.28125 216.203125 C-308.95220703 215.71005859 -308.95220703 215.71005859 -309.63671875 215.20703125 C-314.71746167 211.20960239 -317.65219011 207.08721143 -320.28125 201.203125 C-320.76271484 200.12998047 -320.76271484 200.12998047 -321.25390625 199.03515625 C-325.24193172 188.25821301 -324.77732813 174.42707567 -320.609375 163.81640625 C-318.37667117 159.42323312 -315.64144983 155.79308209 -312.28125 152.203125 C-311.53101563 151.39101563 -311.53101563 151.39101563 -310.765625 150.5625 C-298.06529407 138.37531376 -279.32727714 134.80426807 -262.4140625 134.671875 C-260.86332031 134.43984375 -260.86332031 134.43984375 -259.28125 134.203125 C-258.02468942 132.51782047 -258.02468942 132.51782047 -257.28125 130.203125 C-255.67022375 128.15737738 -254.04198815 126.17338677 -252.34375 124.203125 C-251.85285889 123.62989502 -251.36196777 123.05666504 -250.85620117 122.46606445 C-238.58462554 108.21425374 -225.7277811 93.9007733 -210.8984375 82.26171875 C-208.08167107 80.04614276 -205.37629877 77.72367496 -202.65625 75.390625 C-195.19911886 69.18114772 -187.32013346 63.63080654 -179.28125 58.203125 C-178.56114746 57.71585938 -177.84104492 57.22859375 -177.09912109 56.7265625 C-125.82780698 22.38499728 -62.01680995 0.28047674 0 0 Z M-286.75390625 169.453125 C-290.90309578 174.02029186 -292.06482532 177.03502157 -292.28125 183.203125 C-289.83711611 180.12043361 -287.95015476 176.91841389 -286.09375 173.453125 C-285.56394531 172.46828125 -285.03414062 171.4834375 -284.48828125 170.46875 C-284.08996094 169.72109375 -283.69164062 168.9734375 -283.28125 168.203125 C-285.34905988 167.98741835 -285.34905988 167.98741835 -286.75390625 169.453125 Z M123.71875 424.203125 C123.71875 436.083125 123.71875 447.963125 123.71875 460.203125 C154.40875 460.203125 185.09875 460.203125 216.71875 460.203125 C216.71875 448.323125 216.71875 436.443125 216.71875 424.203125 C186.02875 424.203125 155.33875 424.203125 123.71875 424.203125 Z M293.71875 424.203125 C293.71875 436.083125 293.71875 447.963125 293.71875 460.203125 C324.73875 460.203125 355.75875 460.203125 387.71875 460.203125 C387.71875 448.323125 387.71875 436.443125 387.71875 424.203125 C356.69875 424.203125 325.67875 424.203125 293.71875 424.203125 Z " fill="#FEF100" transform="translate(391.28125,179.796875)"/>
<path d="M0 0 C35.64 0 71.28 0 108 0 C108 6.93 108 13.86 108 21 C102.72 21 97.44 21 92 21 C92.06132492 32.84002574 92.1385132 44.67983313 92.23571491 56.51962185 C92.28036079 62.01786763 92.31962973 67.5160403 92.34643555 73.0144043 C92.37252609 78.32487542 92.41296933 83.63506433 92.46318626 88.94536018 C92.47981609 90.96700583 92.49135448 92.98870024 92.49761391 95.01040459 C92.50729728 97.85155398 92.53540704 100.69198765 92.56762695 103.53295898 C92.56619186 104.36086945 92.56475677 105.18877991 92.5632782 106.04177856 C92.67477796 113.03576903 93.83133687 119.44208964 98.4375 124.875 C102.98638275 128.64724423 106.03785481 131.10426487 112.1191864 131.15821838 C112.95457538 131.16799241 113.78996435 131.17776644 114.65066814 131.18783665 C115.5673417 131.1936069 116.48401525 131.19937716 117.4284668 131.20532227 C118.41013478 131.21535499 119.39180277 131.22538771 120.40321827 131.23572445 C123.58519431 131.26714106 126.7671828 131.29189372 129.94921875 131.31640625 C131.91199147 131.33480677 133.87476015 131.35364329 135.83752441 131.3729248 C143.12080179 131.44140624 150.40415664 131.50143738 157.6875 131.5625 C182.0971875 131.7790625 182.0971875 131.7790625 207 132 C207 176.88 207 221.76 207 268 C162.12 268 117.24 268 71 268 C71 242.26 71 216.52 71 190 C81.22097656 189.96132813 81.22097656 189.96132813 91.6484375 189.921875 C95.97790166 189.89669394 100.30729684 189.87035125 104.63671875 189.83984375 C111.50114154 189.79158327 118.36540456 189.74751044 125.22998047 189.72900391 C130.7674408 189.71380527 136.30448176 189.67930233 141.84175491 189.63169098 C143.94909637 189.61691031 146.05649771 189.6089609 148.16389084 189.60811615 C151.12712509 189.60573478 154.08921131 189.57856084 157.05224609 189.54589844 C157.91396423 189.5509288 158.77568237 189.55595917 159.66351318 189.56114197 C166.59414892 189.44376645 173.62143705 187.97589286 178.95332909 183.27947617 C186.77476125 174.9128786 185.35922561 165.5339391 186 154 C154.98 154 123.96 154 92 154 C92 162.25 92 170.5 92 179 C85.07 179 78.14 179 71 179 C71 157.22 71 135.44 71 113 C68.69 113 66.38 113 64 113 C64 168.44 64 223.88 64 281 C217.78 281 371.56 281 530 281 C530 287.93 530 294.86 530 302 C369.29 302 208.58 302 43 302 C43 239.63 43 177.26 43 113 C40.69 113 38.38 113 36 113 C36 164.15 36 215.3 36 268 C-8.88 268 -53.76 268 -100 268 C-100 242.26 -100 216.52 -100 190 C-93.17441406 189.96261719 -86.34882813 189.92523437 -79.31640625 189.88671875 C-74.98239702 189.85642913 -70.64842836 189.8252747 -66.31445312 189.79101562 C-59.44118331 189.73676605 -52.56799374 189.68565288 -45.69458008 189.65356445 C-40.15069641 189.62748211 -34.60708345 189.58704449 -29.06336784 189.53681374 C-26.95240595 189.52017841 -24.84139727 189.50864343 -22.7303791 189.50238609 C-19.7647095 189.49270881 -16.7997273 189.46460586 -13.83422852 189.43237305 C-12.9689151 189.43380814 -12.10360168 189.43524323 -11.21206665 189.4367218 C-4.56231487 189.3350605 2.0184148 188.37929504 7.33984375 184.1328125 C7.86707031 183.47023438 8.39429688 182.80765625 8.9375 182.125 C9.48277344 181.46757813 10.02804687 180.81015625 10.58984375 180.1328125 C16.17955404 171.67856923 14.40607276 165.28461749 15 154 C-15.69 154 -46.38 154 -78 154 C-78 162.25 -78 170.5 -78 179 C-85.26 179 -92.52 179 -100 179 C-100 163.49 -100 147.98 -100 132 C-92.94625 131.97421875 -85.8925 131.9484375 -78.625 131.921875 C-74.14970349 131.89670117 -69.67447419 131.87036405 -65.19921875 131.83984375 C-58.09976974 131.79153757 -51.00047637 131.74748193 -43.90087891 131.72900391 C-38.17540163 131.71383242 -32.45033217 131.67937734 -26.72503662 131.63169098 C-24.54347279 131.6168824 -22.36185074 131.60895929 -20.18023682 131.60811615 C-17.1184163 131.60574325 -14.05771981 131.57863636 -10.99609375 131.54589844 C-9.65065239 131.55344398 -9.65065239 131.55344398 -8.2780304 131.56114197 C-1.79143771 131.45421437 3.61005066 130.05562102 8.52687073 125.62371445 C13.9273455 119.62001011 14.29956244 113.34441961 14.31884766 105.68994141 C14.32889328 104.77222961 14.3389389 103.85451782 14.34928894 102.90899658 C14.38006364 99.88985798 14.39714026 96.87080784 14.4140625 93.8515625 C14.43277873 91.75262697 14.45235248 89.65369893 14.4727478 87.55477905 C14.52402682 82.04095885 14.56367527 76.52711426 14.60089111 71.01318359 C14.64095721 65.38242583 14.69203769 59.75176913 14.7421875 54.12109375 C14.83889675 43.0808002 14.92331761 32.04044954 15 21 C10.05 21 5.1 21 0 21 C0 14.07 0 7.14 0 0 Z M-78 211 C-78 222.88 -78 234.76 -78 247 C-47.31 247 -16.62 247 15 247 C15 235.12 15 223.24 15 211 C-15.69 211 -46.38 211 -78 211 Z M92 211 C92 222.88 92 234.76 92 247 C123.02 247 154.04 247 186 247 C186 235.12 186 223.24 186 211 C154.98 211 123.96 211 92 211 Z " fill="#1075BB" transform="translate(593,393)"/>
<path d="M0 0 C0.92022949 0.04664795 1.84045898 0.0932959 2.78857422 0.14135742 C10.01678239 0.57591268 16.80976062 1.62407502 23.75 3.75 C24.6884375 4.02714844 25.626875 4.30429687 26.59375 4.58984375 C40.14722627 9.02518079 49.82915319 17.13080516 57.78125 28.734375 C58.75 30.75 58.75 30.75 57.75 33.75 C54.50544996 35.99126676 50.93776904 37.69087218 47.4375 39.5 C46.47392578 40.01949219 45.51035156 40.53898437 44.51757812 41.07421875 C43.58751953 41.56019531 42.65746094 42.04617188 41.69921875 42.546875 C40.84674561 42.99385742 39.99427246 43.44083984 39.1159668 43.90136719 C36.4508291 44.85730761 35.34163735 44.80488044 32.75 43.75 C31.25 42.33203125 31.25 42.33203125 29.75 40.5625 C22.02986117 32.51102474 10.96217288 28.8472893 -0.00390625 28.484375 C-1.60677081 28.47915819 -3.20970286 28.484401 -4.8125 28.5 C-5.61107422 28.49226563 -6.40964844 28.48453125 -7.23242188 28.4765625 C-15.7980092 28.50448618 -24.43834925 30.01294848 -30.76171875 36.23828125 C-35.60183235 41.82729495 -35.69091159 46.67280366 -35.25 53.75 C-34.67781868 56.69429776 -34.67781868 56.69429776 -33.25 58.75 C-30.3205733 60.42022992 -27.22070967 61.58333091 -24.0625 62.75 C-22.74185547 63.245 -22.74185547 63.245 -21.39453125 63.75 C-14.27150269 66.01521157 -7.06604874 67.1047058 0.32983398 68.09326172 C20.15125578 70.76390824 42.16404618 74.54055165 55.75 90.75 C63.79795396 103.23224701 65.96128589 117.28998297 63.36767578 131.90429688 C61.33893038 140.01927849 57.49627316 146.73925402 51.75 152.75 C51.15445313 153.37390625 50.55890625 153.9978125 49.9453125 154.640625 C34.26447749 169.60573725 10.80242598 172.40699739 -9.89453125 171.99609375 C-29.13855965 171.30102642 -47.38472993 166.36721565 -61.4921875 152.5546875 C-73.81628419 139.20745825 -73.81628419 139.20745825 -74.25 130.75 C-73.72035645 130.53698242 -73.19071289 130.32396484 -72.64501953 130.10449219 C-69.0065873 128.30397946 -66.75984179 126.78636242 -64.93652344 123.08007812 C-63.86213477 119.74332496 -62.96484119 116.40335865 -62.125 113 C-61.46966364 110.57066289 -60.81080392 108.14227352 -60.1484375 105.71484375 C-59.67422363 103.93762939 -59.67422363 103.93762939 -59.19042969 102.12451172 C-57.90934924 97.5276545 -56.38360474 93.0443148 -54.75 88.5625 C-54.49460449 87.85706055 -54.23920898 87.15162109 -53.97607422 86.42480469 C-53.40696172 84.86424461 -52.82963864 83.30668103 -52.25 81.75 C-52.69730469 81.42128906 -53.14460938 81.09257812 -53.60546875 80.75390625 C-58.68621167 76.75647739 -61.62094011 72.63408643 -64.25 66.75 C-64.57097656 66.03457031 -64.89195313 65.31914062 -65.22265625 64.58203125 C-69.21068172 53.80508801 -68.74607813 39.97395067 -64.578125 29.36328125 C-62.34542117 24.97010812 -59.61019983 21.33995709 -56.25 17.75 C-55.74984375 17.20859375 -55.2496875 16.6671875 -54.734375 16.109375 C-40.74301864 2.68332597 -18.57350376 -0.94902362 0 0 Z " fill="#2B3A90" transform="translate(135.25,314.25)"/>
<path d="M0 0 C36 0 36 0 43.875 7.8125 C45.51904297 10.4699707 45.51904297 10.4699707 46.4921875 12.80078125 C49.01653165 18.26746823 52.33075615 22.75133473 56 27.5 C57.1748174 29.08149121 58.34540687 30.66613204 59.51171875 32.25390625 C60.08841309 33.03652832 60.66510742 33.81915039 61.25927734 34.62548828 C64.13347586 38.54616917 66.97252394 42.49199909 69.8125 46.4375 C71.87301741 49.2931033 73.93592749 52.14696564 76 55 C76.46374023 55.64243652 76.92748047 56.28487305 77.40527344 56.94677734 C78.65901333 58.67811062 79.92142898 60.40267304 81.1875 62.125 C81.88230469 63.07632813 82.57710938 64.02765625 83.29296875 65.0078125 C84.13794922 65.99394531 84.13794922 65.99394531 85 67 C85.66 67 86.32 67 87 67 C88.28456435 65.60296978 88.28456435 65.60296978 89.546875 63.73046875 C90.30871094 62.65925781 90.30871094 62.65925781 91.0859375 61.56640625 C91.63507813 60.78136719 92.18421875 59.99632812 92.75 59.1875 C93.9313519 57.52407177 95.11367505 55.86133297 96.296875 54.19921875 C96.90853516 53.33731934 97.52019531 52.47541992 98.15039062 51.58740234 C101.05474173 47.52453103 104.02692864 43.51270878 107 39.5 C112.1512523 32.53280769 117.25189 25.53144588 122.29882812 18.48828125 C126.77854674 12.25355999 131.38963826 6.14714898 136 0 C147.55 0 159.1 0 171 0 C171 53.46 171 106.92 171 162 C160.77 162 150.54 162 140 162 C139.67 124.38 139.34 86.76 139 48 C128.98767338 61.05082767 128.98767338 61.05082767 119.1875 74.25 C113.42655138 82.12068471 107.54436986 89.89282982 101.5925293 97.62011719 C100.65147339 98.84649902 100.65147339 98.84649902 99.69140625 100.09765625 C99.07539551 100.89445801 98.45938477 101.69125977 97.82470703 102.51220703 C95.94229726 105.01521925 95.94229726 105.01521925 94.21826172 107.84326172 C89.86822092 114.73476328 89.86822092 114.73476328 85.4453125 116.0859375 C80.51263937 114.53119472 78.74298235 111.78436542 75.875 107.625 C75.3193335 106.85913574 74.76366699 106.09327148 74.19116211 105.30419922 C72.44046553 102.88334299 70.72064665 100.44227128 69 98 C67.92339464 96.50837597 66.84403554 95.01873503 65.76171875 93.53125 C63.606884 90.56716021 61.46324179 87.59551024 59.328125 84.6171875 C55.33710849 79.06250876 51.27115886 73.56360244 47.19555664 68.07080078 C42.04114071 61.10621699 37.03926571 54.054972 32 47 C31.67 84.95 31.34 122.9 31 162 C20.77 162 10.54 162 0 162 C0 108.54 0 55.08 0 0 Z " fill="#2B3A90" transform="translate(222,320)"/>
<path d="M0 0 C40.46424636 -0.1209091 40.46424636 -0.1209091 57.390625 -0.14648438 C69.08858169 -0.16430132 80.78647367 -0.18527279 92.484375 -0.22631836 C101.00301958 -0.25619434 109.52161177 -0.27556873 118.04030728 -0.28226548 C122.5520509 -0.2861808 127.06364463 -0.2954002 131.57534027 -0.31719017 C135.82046125 -0.33752689 140.06537037 -0.34383952 144.31053543 -0.33932304 C145.86982244 -0.34014951 147.42911642 -0.34613197 148.98836136 -0.35761642 C151.11544753 -0.37251697 153.24173116 -0.36896315 155.36883545 -0.36076355 C157.15527025 -0.36491162 157.15527025 -0.36491162 158.97779465 -0.36914349 C162.29923198 0.03654932 163.66469603 0.6407485 166 3 C167.01773461 6.05320382 167.12333558 8.10100713 167.12025452 11.29606628 C167.12231651 12.94301231 167.12231651 12.94301231 167.12442017 14.62322998 C167.12082489 15.82804016 167.11722961 17.03285034 167.11352539 18.27416992 C167.11367142 19.54257217 167.11381744 20.81097443 167.1139679 22.11781311 C167.11425511 25.59687748 167.10837057 29.07590746 167.10139394 32.55496383 C167.09514785 36.19047481 167.0945556 39.82598656 167.09336853 43.46150208 C167.09025893 50.34627382 167.08205052 57.23102972 167.07201904 64.11579448 C167.0587578 73.41889244 167.053355 82.72199473 167.04751682 92.02509975 C167.0381104 106.68341172 167.018189 121.34169021 167 136 C147.53 136 128.06 136 108 136 C108 110.26 108 84.52 108 58 C114.93 58 121.86 58 129 58 C129 76.81 129 95.62 129 115 C134.28 115 139.56 115 145 115 C144.98223026 104.98518417 144.94334373 94.97104894 144.86790943 84.95649815 C144.83370801 80.30565075 144.80854015 75.65512946 144.80444336 71.00415039 C144.80014566 66.510476 144.7715618 62.01753638 144.72656822 57.52409172 C144.71364005 55.81505561 144.70926886 54.10593137 144.71384621 52.39685249 C144.93492375 39.31811495 144.93492375 39.31811495 139 28 C127.03822748 17.36166866 108.29418857 22.39706079 94 22 C94 59.29 94 96.58 94 135 C86.74 135 79.48 135 72 135 C72 97.71 72 60.42 72 22 C55.17 22 38.34 22 21 22 C21 52.69 21 83.38 21 115 C25.95 115 30.9 115 36 115 C36 96.19 36 77.38 36 58 C42.93 58 49.86 58 57 58 C57 83.74 57 109.48 57 136 C38.19 136 19.38 136 0 136 C0 91.12 0 46.24 0 0 Z " fill="#0F75BC" transform="translate(956,525)"/>
<path d="M0 0 C6.6 0 13.2 0 20 0 C20 55.77 20 111.54 20 169 C173.78 169 327.56 169 486 169 C486 175.93 486 182.86 486 190 C325.29 190 164.58 190 -1 190 C-1 1 -1 1 0 0 Z " fill="#0F75BB" transform="translate(637,505)"/>
<path d="M0 0 C188.1 0 376.2 0 570 0 C570 6.93 570 13.86 570 21 C381.9 21 193.8 21 0 21 C0 14.07 0 7.14 0 0 Z " fill="#0F75BC" transform="translate(59,674)"/>
<path d="M0 0 C1.64352211 -0.00206625 1.64352211 -0.00206625 3.3202467 -0.00417423 C4.52733949 -0.00057612 5.73443228 0.00302198 6.97810364 0.00672913 C8.26704938 0.00660859 9.55599512 0.00648806 10.88399982 0.00636387 C14.37286326 0.00613797 17.86169244 0.01193687 21.35054779 0.0189743 C24.62349351 0.02466618 27.89643773 0.02493726 31.16938782 0.02565002 C40.74340766 0.03089886 50.31742112 0.04485999 59.89143372 0.05775452 C91.97362122 0.08869202 91.97362122 0.08869202 124.70393372 0.12025452 C124.70393372 45.00025452 124.70393372 89.88025452 124.70393372 136.12025452 C79.82393372 136.12025452 34.94393372 136.12025452 -11.29606628 136.12025452 C-11.29606628 110.38025452 -11.29606628 84.64025452 -11.29606628 58.12025452 C-4.54266785 58.0828717 2.21073059 58.04548889 9.16877747 58.00697327 C13.45721403 57.97668328 17.74560962 57.94552861 22.03401184 57.91127014 C28.83485305 57.85702274 35.63561318 57.80590949 42.43659973 57.77381897 C47.92213022 57.74773464 53.4073872 57.70729566 58.89274788 57.65706825 C60.98138072 57.64043426 63.07006083 57.62889846 65.15875053 57.62264061 C68.09328999 57.61296186 71.02713519 57.58485725 73.96150208 57.55262756 C74.81746475 57.55406265 75.67342743 57.55549774 76.55532837 57.55697632 C83.47983178 57.45001726 89.54479631 56.01573696 95.51643372 52.43275452 C104.20744279 43.24511635 102.0584236 35.03045676 102.70393372 22.12025452 C72.01393372 22.12025452 41.32393372 22.12025452 9.70393372 22.12025452 C9.70393372 30.37025452 9.70393372 38.62025452 9.70393372 47.12025452 C2.77393372 47.12025452 -4.15606628 47.12025452 -11.29606628 47.12025452 C-11.36489137 41.05090164 -11.42463877 34.98289943 -11.46086121 28.91346741 C-11.475959 26.8483166 -11.49643902 24.78319791 -11.52238464 22.71815491 C-11.55872423 19.75184713 -11.57578258 16.78596281 -11.58903503 13.81947327 C-11.60451889 12.89438461 -11.62000275 11.96929596 -11.63595581 11.01617432 C-11.6362957 9.7251757 -11.6362957 9.7251757 -11.63664246 8.40809631 C-11.64330429 7.65086777 -11.64996613 6.89363922 -11.65682983 6.11346436 C-11.19259354 3.5485701 -10.33322522 2.70295782 -8.29606628 1.12025452 C-5.24286246 0.10251991 -3.19505915 -0.00308106 0 0 Z M9.70393372 79.12025452 C9.70393372 91.00025452 9.70393372 102.88025452 9.70393372 115.12025452 C40.39393372 115.12025452 71.08393372 115.12025452 102.70393372 115.12025452 C102.70393372 103.24025452 102.70393372 91.36025452 102.70393372 79.12025452 C72.01393372 79.12025452 41.32393372 79.12025452 9.70393372 79.12025452 Z " fill="#0F75BC" transform="translate(70.29606628417969,524.8797454833984)"/>
<path d="M0 0 C1.09705891 -0.00275499 2.19411781 -0.00550999 3.32442093 -0.00834846 C4.52791561 -0.00115225 5.73141029 0.00604397 6.97137451 0.01345825 C8.26044079 0.01321718 9.54950706 0.01297611 10.87763596 0.01272774 C14.36233846 0.0122765 17.84690342 0.02386221 21.33157349 0.03794861 C24.60229107 0.04934442 27.87300272 0.04987517 31.14373779 0.05130005 C40.70706979 0.06179176 50.27037623 0.08971409 59.8336792 0.11550903 C81.2011792 0.15675903 102.5686792 0.19800903 124.5836792 0.24050903 C124.5836792 45.12050903 124.5836792 90.00050903 124.5836792 136.24050903 C79.7036792 136.24050903 34.8236792 136.24050903 -11.4163208 136.24050903 C-11.4163208 110.50050903 -11.4163208 84.76050903 -11.4163208 58.24050903 C-4.5791333 58.20312622 2.2580542 58.16574341 9.3024292 58.12722778 C13.64099579 58.09694204 17.97952167 58.06579014 22.3180542 58.03152466 C29.20019452 57.9772522 36.08225429 57.9261399 42.96453857 57.89407349 C48.51490179 57.86801188 54.06499367 57.82758878 59.6151886 57.77732277 C61.72976804 57.76067346 63.8443944 57.74914716 65.95903015 57.74289513 C68.9272996 57.73323314 71.89487788 57.70514818 74.86297607 57.67288208 C76.16633911 57.67503471 76.16633911 57.67503471 77.49603271 57.67723083 C84.44682584 57.5707888 90.93617215 56.18936538 96.3961792 51.55300903 C96.93887451 51.11601685 97.48156982 50.67902466 98.04071045 50.22879028 C104.46151372 41.95489443 103.0238102 32.31815108 103.5836792 22.24050903 C72.5636792 22.24050903 41.5436792 22.24050903 9.5836792 22.24050903 C9.5836792 30.49050903 9.5836792 38.74050903 9.5836792 47.24050903 C2.6536792 47.24050903 -4.2763208 47.24050903 -11.4163208 47.24050903 C-11.46224459 41.47452195 -11.50206653 35.70917003 -11.52618408 29.94314575 C-11.53623863 27.98186085 -11.54988413 26.02059093 -11.56719971 24.05935669 C-11.59147194 21.23949485 -11.60280939 18.41983131 -11.6116333 15.59988403 C-11.62711716 14.28561432 -11.62711716 14.28561432 -11.64291382 12.9447937 C-11.64306488 12.124245 -11.64321594 11.30369629 -11.64337158 10.45828247 C-11.64781281 9.73880432 -11.65225403 9.01932617 -11.65682983 8.27804565 C-11.36620021 5.815899 -10.78922927 4.30839838 -9.4163208 2.24050903 C-6.23214066 0.22364749 -3.72976307 -0.00720031 0 0 Z M9.5836792 79.24050903 C9.5836792 91.12050903 9.5836792 103.00050903 9.5836792 115.24050903 C40.6036792 115.24050903 71.6236792 115.24050903 103.5836792 115.24050903 C103.5836792 103.36050903 103.5836792 91.48050903 103.5836792 79.24050903 C72.5636792 79.24050903 41.5436792 79.24050903 9.5836792 79.24050903 Z " fill="#0F75BC" transform="translate(820.4163208007813,524.7594909667969)"/>
<path d="M0 0 C45.21 0 90.42 0 137 0 C137 15.51 137 31.02 137 47 C129.74 47 122.48 47 115 47 C115 38.75 115 30.5 115 22 C84.31 22 53.62 22 22 22 C21.54753192 39.01492896 21.54753192 39.01492896 29.25 52.3125 C36.06183352 56.49248875 41.99023412 57.44515475 49.8125 57.43237305 C50.75976456 57.4425647 51.70702911 57.45275635 52.68299866 57.46325684 C55.78872697 57.49325529 58.89414617 57.50263271 62 57.51171875 C64.1633404 57.52857517 66.32667106 57.5467267 68.48999023 57.56611633 C74.16490639 57.61351771 79.83978304 57.64339094 85.51483154 57.66955566 C92.33407067 57.70466637 99.1531582 57.76165106 105.97227478 57.81494904 C116.31483036 57.89334722 126.65718905 57.94404076 137 58 C137 83.74 137 109.48 137 136 C91.79 136 46.58 136 0 136 C0 129.07 0 122.14 0 115 C37.95 115 75.9 115 115 115 C115 103.12 115 91.24 115 79 C84.31 79 53.62 79 22 79 C22 87.25 22 95.5 22 104 C14.74 104 7.48 104 0 104 C0 69.68 0 35.36 0 0 Z " fill="#0F75BC" transform="translate(203,525)"/>
<path d="M0 0 C44.88 0 89.76 0 136 0 C136 15.51 136 31.02 136 47 C129.07 47 122.14 47 115 47 C115 38.75 115 30.5 115 22 C84.31 22 53.62 22 22 22 C21.47381469 40.46015699 21.47381469 40.46015699 30.375 53.375 C36.4756709 57.15160579 42.63228607 57.30157889 49.60717773 57.31884766 C51.01322517 57.33391609 51.01322517 57.33391609 52.44767761 57.34928894 C55.52631045 57.38002234 58.60485672 57.39712871 61.68359375 57.4140625 C63.82594035 57.43278206 65.96827963 57.45235606 68.11061096 57.4727478 C73.73456504 57.52399168 79.35854301 57.56365889 84.98260498 57.60089111 C91.7383908 57.64803422 98.49405882 57.70959885 105.24974823 57.76873779 C115.4997844 57.85685559 125.74979908 57.92668782 136 58 C136 83.74 136 109.48 136 136 C91.12 136 46.24 136 0 136 C0 129.07 0 122.14 0 115 C37.95 115 75.9 115 115 115 C115 103.12 115 91.24 115 79 C84.31 79 53.62 79 22 79 C22 87.25 22 95.5 22 104 C14.74 104 7.48 104 0 104 C0 69.68 0 35.36 0 0 Z " fill="#0F75BC" transform="translate(348,525)"/>
<path d="M0 0 C10.23 0 20.46 0 31 0 C31.33 21.78 31.66 43.56 32 66 C40.69440389 56.62523772 40.69440389 56.62523772 49.16015625 47.08984375 C51.56670191 44.35629401 54.03304949 41.67887646 56.5 39 C60.12092721 35.06717596 63.68958986 31.09785918 67.19140625 27.05859375 C69.4301125 24.5104335 71.71410212 22.00589407 74 19.5 C81.45715223 11.55574674 81.45715223 11.55574674 88.04052734 2.91479492 C89.63381599 1.01466137 90.54305664 0.12361613 92.95433044 -0.52870178 C95.33070122 -0.6938715 97.63905493 -0.67504725 100.01953125 -0.5859375 C100.87810226 -0.57744781 101.73667328 -0.56895813 102.6212616 -0.56021118 C105.35297231 -0.52672797 108.0816878 -0.4514637 110.8125 -0.375 C112.66857704 -0.34489358 114.52470053 -0.31751895 116.38085938 -0.29296875 C120.92172007 -0.22695395 125.46035296 -0.12347181 130 0 C128.62648686 3.05941832 127.04308962 5.23633583 124.7265625 7.65234375 C124.07284668 8.3395752 123.41913086 9.02680664 122.74560547 9.73486328 C121.69590576 10.82516846 121.69590576 10.82516846 120.625 11.9375 C119.1609462 13.47477284 117.69740858 15.01253743 116.234375 16.55078125 C115.51185547 17.3082666 114.78933594 18.06575195 114.04492188 18.84619141 C111.29206657 21.74562903 108.5786473 24.67974031 105.875 27.625 C101.60362835 32.26915383 97.30896833 36.89070608 93 41.5 C88.1691955 46.66823586 83.35843085 51.85407924 78.56542969 57.05737305 C72.40918218 63.73489905 66.20289524 70.36583837 60 77 C61.84108754 80.95077717 64.40767497 83.85223905 67.375 87 C67.90375732 87.5674292 68.43251465 88.1348584 68.97729492 88.71948242 C73.17132542 93.19125507 77.49200119 97.52685526 81.85351562 101.83447266 C84.47246736 104.43191526 86.9909741 107.06077394 89.375 109.875 C92.70736249 113.79832332 96.34415311 117.38208667 100 121 C104.1884484 125.1450785 108.22670722 129.30916365 112.03125 133.8125 C114.89841278 136.99823642 117.95466647 139.98545533 121 143 C134.44523685 156.33571055 134.44523685 156.33571055 136 161 C130.62924431 161.24910741 125.26191637 161.42950547 119.88671875 161.54931641 C118.06288023 161.59929784 116.23943618 161.66731417 114.41699219 161.75439453 C99.3041553 162.45789461 99.3041553 162.45789461 93.63378906 158.87011719 C91.12325491 156.37242464 89.05216238 153.87940768 87 151 C85.84545534 149.65615644 84.68116546 148.32050636 83.5 147 C82.9534375 146.360625 82.406875 145.72125 81.84375 145.0625 C79.65203687 142.61075311 77.33932896 140.31114427 75 138 C72.06881809 135.10408042 69.23596826 132.19757429 66.5625 129.0625 C63.69827665 125.71074927 60.63666284 122.59443244 57.5 119.5 C53.76497405 115.8152605 50.2256969 112.03744067 46.82421875 108.04296875 C43.78473806 104.63901071 40.50045441 101.48180958 37.234375 98.296875 C35 96 35 96 32 92 C31.67 114.77 31.34 137.54 31 161 C20.77 161 10.54 161 0 161 C0 107.87 0 54.74 0 0 Z " fill="#2B3A90" transform="translate(421,320)"/>
<path d="M0 0 C3.49710396 0.69119231 6.27901515 2.12252042 9.4375 3.75 C23.85009731 10.4364214 39.84371618 12.56905001 55.49853516 14.39306641 C65.79039766 15.71751733 75.94172343 18.95397627 83 27 C86.11369149 31.85861256 85.47708628 37.44641757 85 43 C82.73546399 49.55523581 78.41388252 53.41198266 72.4375 56.6875 C58.29985998 63.3478993 41.7146645 61.95587722 27 58 C18.05014149 54.53553864 9.37178458 48.1616971 4.9375 39.4375 C4.4734375 38.2309375 4.4734375 38.2309375 4 37 C-1.24992842 37.74589147 -5.06086629 40.16971038 -9.57421875 42.8203125 C-10.77498047 43.40425781 -10.77498047 43.40425781 -12 44 C-12.66 43.67 -13.32 43.34 -14 43 C-9.82588276 28.47190365 -5.67012904 14.02497827 0 0 Z " fill="#FEF100" transform="translate(83,397)"/>
<path d="M0 0 C11.55 0 23.1 0 35 0 C35 30.36 35 60.72 35 92 C23.45 92 11.9 92 0 92 C0 61.64 0 31.28 0 0 Z " fill="#FEF101" transform="translate(629,414)"/>
<path d="M0 0 C3.0625 2.1875 3.0625 2.1875 5 4 C3.7251791 6.84383123 2.54862922 9.13754018 0 11 C-2.35961375 10.76403863 -4.05815719 9.97175222 -6.1875 8.9375 C-10.18199621 7.60600126 -13.83199888 7.3972203 -18 8 C-22.00657121 10.07748137 -24.56485398 12.23473221 -27 16 C-28.42692884 21.02415665 -28.56162105 25.64818022 -26.375 30.4375 C-24.40699203 33.75767672 -22.67922266 35.57848215 -19 37 C-13.38619835 38.28841349 -10.07860287 38.09613314 -4.859375 35.69140625 C-3 35 -3 35 1 35 C3.75 37 3.75 37 6 39 C6.46897705 37.93563721 6.9379541 36.87127441 7.42114258 35.7746582 C9.16781084 31.81289533 10.91882841 27.85306732 12.67114258 23.89379883 C13.42785847 22.18240693 14.18340585 20.47049785 14.93774414 18.75805664 C16.02440923 16.29174952 17.11531163 13.82735439 18.20703125 11.36328125 C18.54152786 10.60163162 18.87602448 9.83998199 19.22065735 9.05525208 C20.12301184 7.02458187 21.05415792 5.01070093 22 3 C22.45592529 2.00895264 22.91185059 1.01790527 23.3815918 -0.00317383 C25 -2 25 -2 27.69921875 -2.48828125 C28.68535156 -2.43027344 29.67148437 -2.37226562 30.6875 -2.3125 C31.68136719 -2.26738281 32.67523437 -2.22226562 33.69921875 -2.17578125 C34.83810547 -2.08876953 34.83810547 -2.08876953 36 -2 C38.51426565 3.52924234 41.02259118 9.06112743 43.52563477 14.59545898 C44.37657671 16.4747637 45.22909003 18.35335778 46.08325195 20.23120117 C47.31623307 22.94260798 48.54339437 25.65658623 49.76953125 28.37109375 C50.14777542 29.19959335 50.52601959 30.02809296 50.91572571 30.88169861 C53.29610846 36.17027322 55.24734803 41.47054059 57 47 C53.37 47 49.74 47 46 47 C44.68 44.36 43.36 41.72 42 39 C34.08 39 26.16 39 18 39 C16.68 41.64 15.36 44.28 14 47 C10.37 47 6.74 47 3 47 C3 46.01 3 45.02 3 44 C2.51273438 44.28875 2.02546875 44.5775 1.5234375 44.875 C-6.07587026 48.85427388 -14.14026185 49.27266188 -22.5 47.45703125 C-29.85220594 44.93667277 -33.36980703 40.89354733 -36.984375 34.31640625 C-40.26901424 26.82490213 -39.53922691 18.97662426 -37.03515625 11.39453125 C-34.312257 5.09590015 -30.06564139 1.56043678 -23.9296875 -1.2734375 C-15.83790872 -4.32013963 -7.80057001 -3.60606621 0 0 Z M30 11 C28.84917315 13.24756784 27.70423142 15.49781748 26.5625 17.75 C26.07426758 18.70132813 26.07426758 18.70132813 25.57617188 19.671875 C23.98922533 22.81304754 22.8591952 25.5632192 22 29 C27.28 29 32.56 29 38 29 C36.58452992 24.75358975 35.10951236 20.73305558 33.375 16.625 C32.70597656 15.03558594 32.70597656 15.03558594 32.0234375 13.4140625 C31.68570313 12.61742187 31.34796875 11.82078125 31 11 C30.67 11 30.34 11 30 11 Z " fill="#283891" transform="translate(661,717)"/>
<path d="M0 0 C3.75078254 1.51817388 6.33921652 3.92450231 9.3125 6.625 C10.55588626 7.7281486 11.80068522 8.82970692 13.046875 9.9296875 C13.65466797 10.46819336 14.26246094 11.00669922 14.88867188 11.56152344 C17.20260796 13.56181577 19.62512439 15.40327676 22.0625 17.25 C29.4889866 23.16436125 35.47099302 30.64373654 37.625 40.0625 C37.625 43.0325 37.625 46.0025 37.625 49.0625 C30.695 49.0625 23.765 49.0625 16.625 49.0625 C16.13 45.5975 16.13 45.5975 15.625 42.0625 C13.26129414 37.24054004 10.5705883 34.88276086 5.76953125 32.75390625 C0.84173465 31.16516309 -3.17317701 31.68192272 -8.125 33.25 C-15.2029026 37.19729184 -15.71046025 41.06888074 -18.375 49.0625 C-25.305 49.0625 -32.235 49.0625 -39.375 49.0625 C-39.375 36.60000304 -34.54267881 28.35649857 -26.125 19.5625 C-22.61755992 16.16298115 -18.85410892 13.12914718 -15 10.1328125 C-13.19616476 8.71014482 -11.42641265 7.24351615 -9.6875 5.7421875 C-8.82125 5.00226563 -7.955 4.26234375 -7.0625 3.5 C-6.28261719 2.81808594 -5.50273438 2.13617188 -4.69921875 1.43359375 C-2.375 0.0625 -2.375 0.0625 0 0 Z " fill="#1476BA" transform="translate(647.375,320.9375)"/>
<path d="M0 0 C0.94854858 -0.00861557 1.89709717 -0.01723114 2.87438965 -0.02610779 C6.00508019 -0.04878249 9.13487677 -0.04202637 12.265625 -0.03295898 C14.4436876 -0.03819363 16.62174794 -0.04446952 18.79980469 -0.05174255 C23.36273879 -0.06214937 27.92536108 -0.05758067 32.48828125 -0.04296875 C38.33628098 -0.02577474 44.18329879 -0.04928305 50.03118896 -0.08445835 C54.52822381 -0.1064149 59.02502304 -0.10499513 63.52209473 -0.09669304 C65.67827431 -0.09587268 67.83447104 -0.10275208 69.99060059 -0.11746407 C73.00476531 -0.13487865 76.01715674 -0.12039283 79.03125 -0.09765625 C79.92179077 -0.10934845 80.81233154 -0.12104065 81.7298584 -0.13308716 C85.81461592 -0.07037642 88.04501852 0.25164944 91.60839844 2.38539124 C93.515625 5.53344727 93.515625 5.53344727 93.515625 16.53344727 C57.875625 16.53344727 22.235625 16.53344727 -14.484375 16.53344727 C-14.484375 4.53344727 -14.484375 4.53344727 -12.57714844 1.81678772 C-8.2998009 0.0419105 -4.59275895 -0.03365572 0 0 Z " fill="#1878B8" transform="translate(607.484375,372.466552734375)"/>
<path d="M0 0 C4.455 -0.061875 8.91 -0.12375 13.5 -0.1875 C14.88896484 -0.21481201 16.27792969 -0.24212402 17.70898438 -0.27026367 C24.52113727 -0.31595974 29.87842447 -0.10493374 36 3 C39.42046489 6.50597651 40.26023332 9.29757172 40.4375 14.0625 C40.28481119 18.11180734 39.5903617 20.76204787 37 24 C37.9590625 24.9590625 37.9590625 24.9590625 38.9375 25.9375 C41.62441679 29.92716432 42.21086635 33.22598577 42 38 C40.39408973 42.72851356 38.15222783 45.26560607 34 48 C30.38458474 49.25577879 26.8451192 49.11375051 23.046875 49.09765625 C21.83870117 49.09515869 20.63052734 49.09266113 19.38574219 49.09008789 C17.85594727 49.08098389 16.32615234 49.07187988 14.75 49.0625 C9.8825 49.041875 5.015 49.02125 0 49 C0 32.83 0 16.66 0 0 Z M10 9 C10 12.3 10 15.6 10 19 C12.95857409 19.05379226 15.91617721 19.09357093 18.875 19.125 C20.13763672 19.15013672 20.13763672 19.15013672 21.42578125 19.17578125 C22.63427734 19.18544922 22.63427734 19.18544922 23.8671875 19.1953125 C24.61081543 19.20578613 25.35444336 19.21625977 26.12060547 19.22705078 C28.24490235 19.1665597 28.24490235 19.1665597 30 17 C30.16687448 14.41645782 30.16687448 14.41645782 30 12 C25.32950485 9.2623713 22.01200281 8.66003766 16.625 8.8125 C15.37976563 8.83957031 14.13453125 8.86664062 12.8515625 8.89453125 C11.44003906 8.94673828 11.44003906 8.94673828 10 9 Z M10 28 C10 31.96 10 35.92 10 40 C12.39614126 40.05425226 14.79103853 40.09379027 17.1875 40.125 C17.86103516 40.14175781 18.53457031 40.15851562 19.22851562 40.17578125 C23.28428406 40.21534972 26.38959048 39.88770955 30 38 C30.66 37.34 31.32 36.68 32 36 C31.7603518 33.52363527 31.19869504 32.24385301 29.625 30.3125 C25.95425212 27.34766518 21.76945328 27.88340066 17.3125 27.9375 C16.61060547 27.94201172 15.90871094 27.94652344 15.18554688 27.95117188 C13.45699462 27.96293073 11.72848635 27.98086546 10 28 Z " fill="#283891" transform="translate(892,715)"/>
<path d="M0 0 C6.435 -0.0928125 6.435 -0.0928125 13 -0.1875 C14.33675781 -0.21481201 15.67351562 -0.24212402 17.05078125 -0.27026367 C31.2292634 -0.36896119 31.2292634 -0.36896119 36.54663086 4.38183594 C40.75696452 9.0910243 41.31857918 12.77548917 41.21484375 18.9765625 C40.73279649 23.51657127 38.79614907 26.30094228 35.4375 29.25 C34.633125 29.8275 33.82875 30.405 33 31 C32.34 31.66 31.68 32.32 31 33 C31.78246094 33.81984375 32.56492187 34.6396875 33.37109375 35.484375 C34.39361075 36.57255823 35.41572522 37.66111981 36.4375 38.75 C36.95376953 39.28882813 37.47003906 39.82765625 38.00195312 40.3828125 C40.63486577 43.20501951 42.28129751 45.20982766 43 49 C38.80997013 49.71273704 35.17248276 49.8972554 31 49 C26.29800434 45.27994721 22.75976549 40.68500301 19.484375 35.6875 C17.61972985 33.56769289 16.58684525 33.43192428 13.8125 33.25 C12.554375 33.1675 11.29625 33.085 10 33 C10 38.28 10 43.56 10 49 C6.7 49 3.4 49 0 49 C0 32.83 0 16.66 0 0 Z M10 10 C10 14.62 10 19.24 10 24 C12.56428515 24.13559675 15.12135216 24.23433188 17.6875 24.3125 C18.7693457 24.3753418 18.7693457 24.3753418 19.87304688 24.43945312 C24.06568031 24.53517535 25.56592673 24.33411849 29.01953125 21.67578125 C31.30985355 19.13619042 31.30985355 19.13619042 31 15.875 C29.98156439 12.94699763 29.3766418 11.88447245 27 10 C25.07435138 9.59011951 25.07435138 9.59011951 22.98828125 9.70703125 C22.23095703 9.71669922 21.47363281 9.72636719 20.69335938 9.73632812 C19.90767578 9.76146484 19.12199219 9.78660156 18.3125 9.8125 C17.51521484 9.82603516 16.71792969 9.83957031 15.89648438 9.85351562 C13.93070033 9.88882911 11.96526418 9.94263553 10 10 Z " fill="#283891" transform="translate(313,715)"/>
<path d="M0 0 C9 0 9 0 11.6796875 2.3515625 C12.40414062 3.43179688 13.12859375 4.51203125 13.875 5.625 C14.70141235 6.8097902 15.52960739 7.99333848 16.359375 9.17578125 C16.78283203 9.79791504 17.20628906 10.42004883 17.64257812 11.06103516 C19.99517874 14.4215305 22.57039356 17.60475313 25.125 20.8125 C26.73375 22.854375 28.3425 24.89625 30 27 C30.33 18.09 30.66 9.18 31 0 C34.3 0 37.6 0 41 0 C41 16.17 41 32.34 41 49 C34 49 34 49 31.48046875 46.83203125 C30.72378906 45.83558594 29.96710938 44.83914063 29.1875 43.8125 C28.77298584 43.27947266 28.35847168 42.74644531 27.93139648 42.19726562 C27.05436686 41.06416775 26.1871207 39.92343933 25.32910156 38.77587891 C23.98753843 36.98334948 22.61948637 35.21440002 21.2421875 33.44921875 C17.78024505 29.00170086 14.38171399 24.50895198 11 20 C10.67 29.57 10.34 39.14 10 49 C6.7 49 3.4 49 0 49 C0 32.83 0 16.66 0 0 Z " fill="#283891" transform="translate(77,715)"/>
<path d="M0 0 C8 0 8 0 10.1796875 1.51171875 C10.73914063 2.22972656 11.29859375 2.94773437 11.875 3.6875 C12.52726563 4.50089844 13.17953125 5.31429687 13.8515625 6.15234375 C14.56054688 7.09207031 15.26953125 8.03179688 16 9 C16.86042 10.10668273 17.72247134 11.21209858 18.5859375 12.31640625 C20.30716851 14.52767078 22.01255235 16.7495957 23.703125 18.984375 C25.76187182 21.68735551 27.87745738 24.34682173 30 27 C30.33 18.09 30.66 9.18 31 0 C34.3 0 37.6 0 41 0 C41 16.17 41 32.34 41 49 C34 49 34 49 32.13671875 47.70703125 C31.65847656 47.08183594 31.18023438 46.45664062 30.6875 45.8125 C30.11515625 45.08675781 29.5428125 44.36101563 28.953125 43.61328125 C28.30859375 42.75089844 27.6640625 41.88851562 27 41 C26.19046875 39.96230469 25.3809375 38.92460938 24.546875 37.85546875 C19.95278393 31.96250674 15.48330853 25.97774471 11 20 C10.67 29.57 10.34 39.14 10 49 C6.7 49 3.4 49 0 49 C0 32.83 0 16.66 0 0 Z " fill="#283891" transform="translate(830,715)"/>
<path d="M0 0 C27.72 0 27.72 0 35.75 4.5625 C41.58097475 10.87938931 44.21864356 18.45923604 44 27 C43.44609179 33.93539243 40.903731 39.06275831 36 44 C30.61722597 48.02254819 25.73281484 49.13128987 19.140625 49.09765625 C18.13547852 49.09515869 17.13033203 49.09266113 16.09472656 49.09008789 C14.19158691 49.07643188 14.19158691 49.07643188 12.25 49.0625 C8.2075 49.041875 4.165 49.02125 0 49 C0 32.83 0 16.66 0 0 Z M10 10 C10 19.57 10 29.14 10 39 C22.36393081 39.87696281 22.36393081 39.87696281 30.7265625 34.60546875 C33.35436356 31.29250484 33.7496167 27.12216409 34 23 C33.26696962 18.47064387 31.7568823 15.71996121 28.4375 12.5625 C21.51023607 8.1219462 22.10290387 10 10 10 Z " fill="#283891" transform="translate(1079,715)"/>
<path d="M0 0 C27.72 0 27.72 0 35.75 4.5625 C41.23732164 10.50709844 44.22135692 17.9066375 44 26 C43.45022928 33.34172985 41.28188205 38.79030768 36 44 C30.60900606 48.01704732 25.73842755 49.13131851 19.140625 49.09765625 C18.13547852 49.09515869 17.13033203 49.09266113 16.09472656 49.09008789 C14.19158691 49.07643188 14.19158691 49.07643188 12.25 49.0625 C8.2075 49.041875 4.165 49.02125 0 49 C0 32.83 0 16.66 0 0 Z M10 10 C10 19.57 10 29.14 10 39 C22.34541305 39.89303677 22.34541305 39.89303677 30.7265625 34.5703125 C33.22555989 31.48872676 33.74916184 27.88493242 34 24 C33.27035881 19.18436815 31.93769945 15.91482873 28.4375 12.5 C21.42724413 8.18599639 22.21370404 10 10 10 Z " fill="#283891" transform="translate(125,715)"/>
<path d="M0 0 C28.51898734 0 28.51898734 0 35.3046875 4.54296875 C41.37466659 10.8998374 43.12864125 16.08617621 43.5 24.875 C43.32148139 31.54445542 42.205391 36.71903665 38 42 C32.02417626 47.19960464 26.99698759 49.13773973 19.140625 49.09765625 C18.13547852 49.09515869 17.13033203 49.09266113 16.09472656 49.09008789 C14.19158691 49.07643188 14.19158691 49.07643188 12.25 49.0625 C8.2075 49.041875 4.165 49.02125 0 49 C0 32.83 0 16.66 0 0 Z M10 10 C10 19.57 10 29.14 10 39 C22.55416191 39.97095589 22.55416191 39.97095589 27.6875 37.3125 C31.67367395 33.32632605 33.17142267 30.72025321 33.375 25.0625 C33.16842946 19.26991772 31.76734576 15.81511187 27.6875 11.625 C22.53641141 9.05906392 22.53641141 9.05906392 10 10 Z " fill="#283891" transform="translate(524,715)"/>
<path d="M0 0 C4.90016083 3.73052445 8.09261951 8.88493229 9.2421875 14.93359375 C10.04075477 23.99162821 9.73066505 31.43175509 4.2421875 38.93359375 C-0.40034609 44.11595683 -5.06004296 46.51737561 -12.0546875 47.3046875 C-20.89192055 47.47463429 -27.53144243 46.41514296 -34.375 40.546875 C-40.10375781 34.36049452 -41.35511855 27.12764153 -41.09765625 18.9609375 C-40.32564097 12.08378986 -38.10763463 6.80216157 -33.0703125 1.99609375 C-23.35757492 -5.6302039 -10.61243818 -6.4382125 0 0 Z M-26.33984375 9.3671875 C-30.26857022 13.9073008 -31.13131604 17.71598725 -31.02734375 23.51953125 C-30.4882297 28.34811798 -28.82417793 32.20051307 -25.0625 35.35546875 C-20.4129974 38.10375774 -16.30386841 38.35704336 -11.0234375 37.5390625 C-6.56831219 36.34846867 -4.53566637 34.03331818 -1.9453125 30.37109375 C-0.26054094 25.49412344 -0.07291257 21.03990323 -0.7578125 15.93359375 C-2.91926353 11.53063794 -5.60134216 8.54347048 -9.7578125 5.93359375 C-15.88138935 4.20050596 -21.54990951 5.02667919 -26.33984375 9.3671875 Z " fill="#283891" transform="translate(813.7578125,718.06640625)"/>
<path d="M0 0 C12.21 0 24.42 0 37 0 C37 3.3 37 6.6 37 10 C28.09 10 19.18 10 10 10 C10 13.3 10 16.6 10 20 C18.58 20 27.16 20 36 20 C36 22.97 36 25.94 36 29 C27.42 29 18.84 29 10 29 C10 32.3 10 35.6 10 39 C18.91 39 27.82 39 37 39 C37 42.3 37 45.6 37 49 C24.79 49 12.58 49 0 49 C0 32.83 0 16.66 0 0 Z " fill="#283891" transform="translate(1036,715)"/>
<path d="M0 0 C12.21 0 24.42 0 37 0 C37 3.3 37 6.6 37 10 C28.09 10 19.18 10 10 10 C10 13.3 10 16.6 10 20 C18.58 20 27.16 20 36 20 C36 22.97 36 25.94 36 29 C27.42 29 18.84 29 10 29 C10 32.3 10 35.6 10 39 C18.91 39 27.82 39 37 39 C37 42.3 37 45.6 37 49 C24.79 49 12.58 49 0 49 C0 32.83 0 16.66 0 0 Z " fill="#283891" transform="translate(481,715)"/>
<path d="M0 0 C12.21 0 24.42 0 37 0 C37 3.3 37 6.6 37 10 C28.09 10 19.18 10 10 10 C10 13.3 10 16.6 10 20 C18.58 20 27.16 20 36 20 C36 22.97 36 25.94 36 29 C27.42 29 18.84 29 10 29 C10 32.3 10 35.6 10 39 C18.91 39 27.82 39 37 39 C37 42.3 37 45.6 37 49 C24.79 49 12.58 49 0 49 C0 32.83 0 16.66 0 0 Z " fill="#283891" transform="translate(377,715)"/>
<path d="M0 0 C1.51400391 0.01740234 1.51400391 0.01740234 3.05859375 0.03515625 C4.07050781 0.04417969 5.08242188 0.05320312 6.125 0.0625 C7.29869141 0.07990234 7.29869141 0.07990234 8.49609375 0.09765625 C11.97104363 7.5979555 15.4367528 15.10246036 18.89208984 22.61181641 C19.90953473 24.8229394 20.92797043 27.03360695 21.94775391 29.24365234 C23.2198887 32.00477878 24.48432514 34.76928058 25.74609375 37.53515625 C26.12822021 38.36176758 26.51034668 39.18837891 26.90405273 40.04003906 C27.24895752 40.80026367 27.5938623 41.56048828 27.94921875 42.34375 C28.24989258 43.00044678 28.55056641 43.65714355 28.86035156 44.33374023 C29.49609375 46.09765625 29.49609375 46.09765625 29.49609375 49.09765625 C25.86609375 49.09765625 22.23609375 49.09765625 18.49609375 49.09765625 C15.49609375 43.47265625 15.49609375 43.47265625 15.49609375 40.09765625 C7.24609375 40.09765625 -1.00390625 40.09765625 -9.50390625 40.09765625 C-10.16390625 42.07765625 -10.82390625 44.05765625 -11.50390625 46.09765625 C-12.16390625 47.08765625 -12.82390625 48.07765625 -13.50390625 49.09765625 C-16.10546875 49.390625 -16.10546875 49.390625 -19.12890625 49.28515625 C-20.63324219 49.24455078 -20.63324219 49.24455078 -22.16796875 49.203125 C-22.93882812 49.16832031 -23.7096875 49.13351562 -24.50390625 49.09765625 C-19.68916787 37.75384083 -14.80597837 26.441411 -9.81335449 15.17471313 C-9.00859188 13.35823249 -8.2059497 11.54081291 -7.40332031 9.72338867 C-6.91057617 8.61455322 -6.41783203 7.50571777 -5.91015625 6.36328125 C-5.46994141 5.37102539 -5.02972656 4.37876953 -4.57617188 3.35644531 C-3.03910698 0.11852991 -3.03910698 0.11852991 0 0 Z M2.49609375 13.09765625 C1.34823999 15.5342231 0.20273973 17.97184906 -0.94140625 20.41015625 C-1.26689453 21.10044922 -1.59238281 21.79074219 -1.92773438 22.50195312 C-3.2587811 25.34243428 -4.51098559 28.11889428 -5.50390625 31.09765625 C-0.22390625 31.09765625 5.05609375 31.09765625 10.49609375 31.09765625 C8.52598849 24.89182467 6.24453927 18.99914079 3.49609375 13.09765625 C3.16609375 13.09765625 2.83609375 13.09765625 2.49609375 13.09765625 Z " fill="#283891" transform="translate(958.50390625,714.90234375)"/>
<path d="M0 0 C0.68126953 -0.01160156 1.36253906 -0.02320313 2.06445312 -0.03515625 C7.50649334 -0.00379002 11.63940406 1.17844783 15.6171875 4.98046875 C16.72395833 6.4453125 17.83072917 7.91015625 18.9375 9.375 C16.40793472 12.4666909 13.71295388 13.28431332 9.9375 14.375 C9.9375 13.715 9.9375 13.055 9.9375 12.375 C3.31171716 9.4615352 -1.17202386 9.1107537 -8.0625 11.375 C-8.83492269 13.21200789 -8.83492269 13.21200789 -9.0625 15.375 C-8.17041436 17.21662945 -8.17041436 17.21662945 -6.0625 18.375 C-3.47614434 18.94463117 -0.98849261 19.38461214 1.625 19.75 C7.73668613 20.74806396 13.37938674 21.82976277 17.9375 26.375 C20.90642193 30.99662181 20.5291885 36.08054059 19.9375 41.375 C18.19500317 45.54184026 16.06205847 47.60899159 12.1875 49.75 C4.98012055 52.59470366 -4.27285126 52.68636796 -11.73046875 50.64453125 C-15.85283295 48.74963588 -18.6747343 46.19542513 -21.0625 42.375 C-21.8125 40.0625 -21.8125 40.0625 -22.0625 38.375 C-16.74706376 35.35486577 -16.74706376 35.35486577 -13.9375 35.4375 C-11.49051626 36.66099187 -9.95672199 38.41967408 -8.0625 40.375 C-5.17329306 41.33806898 -3.14002119 41.5705936 -0.125 41.625 C0.72964844 41.65078125 1.58429687 41.6765625 2.46484375 41.703125 C5.4483997 41.30720288 6.79331949 40.46003071 8.9375 38.375 C9.27175735 35.74874861 9.27175735 35.74874861 8.9375 33.375 C4.4388332 30.86185589 0.51259928 29.79427367 -4.5625 29 C-10.36698571 27.96668172 -14.20910425 26.9990749 -18.0625 22.375 C-20.53256621 18.50880942 -20.23659183 14.92106002 -19.59375 10.5234375 C-18.78917775 7.26965268 -17.55173136 5.602207 -15.0625 3.375 C-9.95742347 0.76221549 -5.76203734 -0.0986838 0 0 Z " fill="#283891" transform="translate(1010.0625,713.625)"/>
<path d="M0 0 C0.68126953 -0.01160156 1.36253906 -0.02320313 2.06445312 -0.03515625 C7.50649334 -0.00379002 11.63940406 1.17844783 15.6171875 4.98046875 C16.72395833 6.4453125 17.83072917 7.91015625 18.9375 9.375 C16.39977163 12.47666801 13.86794766 13.66751942 9.9375 14.375 C8.22474465 13.10141268 6.56082967 11.76076923 4.9375 10.375 C0.04269795 9.12905039 -3.4984672 9.0929836 -8.0625 11.375 C-9.30151711 13.24592681 -9.30151711 13.24592681 -9.0625 15.375 C-7.21218068 18.16460355 -5.87198211 18.41696056 -2.55078125 19.1484375 C-1.15974416 19.35504203 0.23224931 19.55528195 1.625 19.75 C7.73668613 20.74806396 13.37938674 21.82976277 17.9375 26.375 C20.72874683 30.80377831 20.53890146 35.30604484 19.9375 40.375 C18.89927096 44.06106149 17.25658866 46.35776229 14.23046875 48.69140625 C6.79412975 52.77215059 -3.64211883 52.85905751 -11.73046875 50.64453125 C-15.85283295 48.74963588 -18.6747343 46.19542513 -21.0625 42.375 C-21.8125 40.0625 -21.8125 40.0625 -22.0625 38.375 C-16.74706376 35.35486577 -16.74706376 35.35486577 -13.9375 35.4375 C-11.49051626 36.66099187 -9.95672199 38.41967408 -8.0625 40.375 C-5.17329306 41.33806898 -3.14002119 41.5705936 -0.125 41.625 C0.72964844 41.65078125 1.58429688 41.6765625 2.46484375 41.703125 C5.4483997 41.30720288 6.79331949 40.46003071 8.9375 38.375 C9.27175735 35.74874861 9.27175735 35.74874861 8.9375 33.375 C4.4388332 30.86185589 0.51259928 29.79427367 -4.5625 29 C-10.36698571 27.96668172 -14.20910425 26.9990749 -18.0625 22.375 C-20.53256621 18.50880942 -20.23659183 14.92106002 -19.59375 10.5234375 C-18.78917775 7.26965268 -17.55173136 5.602207 -15.0625 3.375 C-9.95742347 0.76221549 -5.76203734 -0.0986838 0 0 Z " fill="#283891" transform="translate(244.0625,713.625)"/>
<path d="M0 0 C0.71051514 0.00161133 1.42103027 0.00322266 2.15307617 0.00488281 C8.99826288 0.16507761 13.34172218 1.52922218 18.25 6.4375 C19.1875 8.375 19.1875 8.375 18.1875 11.375 C14.625 13.0625 14.625 13.0625 11.1875 14.375 C10.78015625 13.90835938 10.3728125 13.44171875 9.953125 12.9609375 C6.88875532 10.20842845 3.22801387 9.61542727 -0.8125 9.375 C-3.48041113 10.05534164 -5.37570689 11.02698679 -7.8125 12.375 C-7.4825 14.025 -7.1525 15.675 -6.8125 17.375 C-2.50449426 18.91826425 1.68735296 19.8831974 6.1875 20.6875 C11.96691846 21.90069016 15.33237969 22.87735964 19.1875 27.375 C21.47583963 31.32758663 21.58319707 34.86405339 21.1875 39.375 C19.14463721 44.85847381 16.22711893 47.8579191 11.01171875 50.4609375 C4.19208388 52.66812223 -5.94800443 52.76241176 -12.5 49.75 C-16.06705257 47.5275127 -18.45524602 44.83721678 -20.8125 41.375 C-20.8125 40.385 -20.8125 39.395 -20.8125 38.375 C-15.1875 35.375 -15.1875 35.375 -11.8125 35.375 C-10.10470027 36.99949243 -8.43699243 38.66720027 -6.8125 40.375 C-4.36278376 41.59985812 -2.67015539 41.54222808 0.0625 41.5625 C0.92617188 41.57667969 1.78984375 41.59085938 2.6796875 41.60546875 C5.35881253 41.35925633 6.95549724 40.8646851 9.1875 39.375 C9.99921228 36.81980079 9.99921228 36.81980079 10.1875 34.375 C6.01964002 30.48279214 0.96371003 30.04749986 -4.4375 29.00195312 C-9.94139454 27.83991179 -14.80079047 26.29314842 -18.15625 21.42578125 C-19.44995509 17.38295285 -19.54932187 13.5460525 -18.8125 9.375 C-14.58562675 1.64222519 -8.43380359 -0.01971667 0 0 Z " fill="#283891" transform="translate(439.8125,713.625)"/>
<path d="M0 0 C3.3 0 6.6 0 10 0 C10.01458252 0.97348389 10.02916504 1.94696777 10.04418945 2.94995117 C10.10233296 6.57515476 10.17956377 10.1997476 10.26245117 13.82446289 C10.29562532 15.39076801 10.32368058 16.95719051 10.34643555 18.52368164 C10.38012116 20.78061763 10.43244049 23.03648526 10.48828125 25.29296875 C10.49467117 25.98899704 10.5010611 26.68502533 10.50764465 27.40214539 C10.63784244 31.74537274 11.35579848 34.53272891 14 38 C17.69199497 40.32068255 20.95992588 40.21220528 25.1328125 39.54296875 C27.96700838 38.71879882 29.30615421 37.37138411 31 35 C32.25085434 31.34520126 32.20639779 27.6627057 32.31640625 23.828125 C32.33718735 23.1457074 32.35796844 22.46328979 32.37937927 21.76019287 C32.44452052 19.59022644 32.50359404 17.42014376 32.5625 15.25 C32.60571897 13.77472779 32.64933432 12.29946713 32.69335938 10.82421875 C32.80016518 7.21626834 32.90153153 3.60818867 33 0 C36.3 0 39.6 0 43 0 C43.07468636 4.55318701 43.12885256 9.10600998 43.16479492 13.65966797 C43.1797933 15.20562968 43.20019887 16.75154948 43.22631836 18.29736328 C43.52509869 36.44680379 43.52509869 36.44680379 37.75 44.3125 C32.79458433 49.15529259 28.80910396 50.17107242 22.0625 50.375 C15.98324198 50.18526036 10.88167713 49.60508758 6.25 45.41796875 C1.00889365 39.63511342 -0.30378351 34.62913606 -0.1953125 26.85546875 C-0.1924826 26.08568192 -0.18965271 25.31589508 -0.18673706 24.52278137 C-0.17559157 22.07752575 -0.15049781 19.63264388 -0.125 17.1875 C-0.1149629 15.52409385 -0.10583833 13.86068193 -0.09765625 12.19726562 C-0.07567073 8.13136763 -0.04118014 4.06574706 0 0 Z " fill="#283891" transform="translate(174,715)"/>
<path d="M0 0 C3.3 0 6.6 0 10 0 C10.00410889 1.00377686 10.00821777 2.00755371 10.01245117 3.04174805 C10.03428312 6.77891844 10.08861294 10.51504201 10.15258789 14.25170898 C10.17573286 15.86651549 10.19015543 17.48147221 10.19555664 19.09643555 C10.20487274 21.42331148 10.24591368 23.74783676 10.29296875 26.07421875 C10.2890361 26.79212082 10.28510345 27.51002289 10.28105164 28.24967957 C10.39474675 32.18744764 10.88021067 33.85477554 13.41918945 36.93286133 C16.76845937 39.61550899 18.17634999 40.19582708 22.375 39.875 C25.86219531 39.43769898 26.79287872 39.18640916 29.5 36.75 C32.06571407 32.04619086 32.15321142 27.46014409 32.31640625 22.16796875 C32.37924805 20.22954102 32.37924805 20.22954102 32.44335938 18.25195312 C32.48316352 16.89713808 32.52287591 15.54232033 32.5625 14.1875 C32.60573723 12.81313895 32.64935312 11.43878976 32.69335938 10.06445312 C32.7992979 6.70973331 32.90137189 3.3549414 33 0 C36.3 0 39.6 0 43 0 C43.04992909 4.10762763 43.08596646 8.21513448 43.10986328 12.32299805 C43.1198393 13.71658409 43.13342501 15.11014966 43.15087891 16.50366211 C43.40518596 37.34936121 43.40518596 37.34936121 37 45 C30.0341813 50.36948524 23.61724775 50.77533077 15 50 C8.78406588 48.28597166 4.54407809 44.28545902 1 39 C-0.25282725 35.24151826 -0.12381835 31.74509081 -0.09765625 27.83203125 C-0.0962413 27.03721848 -0.09482635 26.2424057 -0.09336853 25.42350769 C-0.08777378 22.88646675 -0.07522228 20.34951425 -0.0625 17.8125 C-0.05748432 16.09179815 -0.05292153 14.37109492 -0.04882812 12.65039062 C-0.03780607 8.4335597 -0.02054506 4.21679484 0 0 Z " fill="#283891" transform="translate(573,715)"/>
<path d="M0 0 C13.2 0 26.4 0 40 0 C40 2.97 40 5.94 40 9 C35.05 9 30.1 9 25 9 C25 22.2 25 35.4 25 49 C21.7 49 18.4 49 15 49 C15 35.8 15 22.6 15 9 C10.05 9 5.1 9 0 9 C0 6.03 0 3.06 0 0 Z " fill="#283891" transform="translate(711,715)"/>
<path d="M0 0 C13.2 0 26.4 0 40 0 C40 2.97 40 5.94 40 9 C35.05 9 30.1 9 25 9 C25 22.2 25 35.4 25 49 C21.7 49 18.4 49 15 49 C15 35.8 15 22.6 15 9 C10.05 9 5.1 9 0 9 C0 6.03 0 3.06 0 0 Z " fill="#283891" transform="translate(268,715)"/>
<path d="M0 0 C3.3 0 6.6 0 10 0 C10 16.17 10 32.34 10 49 C6.7 49 3.4 49 0 49 C0 32.83 0 16.66 0 0 Z " fill="#283891" transform="translate(756,715)"/>
<path d="M0 0 C3.3 0 6.6 0 10 0 C10 16.17 10 32.34 10 49 C6.7 49 3.4 49 0 49 C0 32.83 0 16.66 0 0 Z " fill="#283891" transform="translate(359,715)"/>
<path d="M0 0 C3.3 0 6.6 0 10 0 C10 16.17 10 32.34 10 49 C6.7 49 3.4 49 0 49 C0 32.83 0 16.66 0 0 Z " fill="#283891" transform="translate(59,715)"/>
<path d="M0 0 C0.80115234 -0.00128906 1.60230469 -0.00257813 2.42773438 -0.00390625 C3.26498047 -0.00003906 4.10222656 0.00382812 4.96484375 0.0078125 C5.80595703 0.00394531 6.64707031 0.00007813 7.51367188 -0.00390625 C13.77571693 0.00618568 13.77571693 0.00618568 14.90234375 1.1328125 C14.97554538 3.665589 14.99461944 6.16385168 14.96484375 8.6953125 C14.94421875 11.1496875 14.92359375 13.6040625 14.90234375 16.1328125 C7.97234375 16.1328125 1.04234375 16.1328125 -6.09765625 16.1328125 C-6.09765625 11.1828125 -6.09765625 6.2328125 -6.09765625 1.1328125 C-3.81874592 -0.00664266 -2.52983521 0.00387036 0 0 Z " fill="#1E7AB6" transform="translate(642.09765625,477.8671875)"/>
<path d="M0 0 C1.10589478 0.00616333 1.10589478 0.00616333 2.23413086 0.01245117 C3.0352832 0.01438477 3.83643555 0.01631836 4.66186523 0.01831055 C5.49911133 0.03055664 6.33635742 0.04280273 7.19897461 0.05541992 C8.46064453 0.05638672 8.46064453 0.05638672 9.74780273 0.05737305 C15.99624277 0.10268808 15.99624277 0.10268808 17.13647461 1.24291992 C17.20967624 3.77569642 17.2287503 6.2739591 17.19897461 8.80541992 C17.17834961 11.25979492 17.15772461 13.71416992 17.13647461 16.24291992 C10.20647461 16.24291992 3.27647461 16.24291992 -3.86352539 16.24291992 C-4.05883789 5.50073242 -4.05883789 5.50073242 -3.86352539 2.24291992 C-1.86352539 0.24291992 -1.86352539 0.24291992 0 0 Z " fill="#1F7AB7" transform="translate(639.863525390625,450.757080078125)"/>
<path d="M0 0 C0.74362793 0.01047363 1.48725586 0.02094727 2.25341797 0.03173828 C3.46191406 0.04140625 3.46191406 0.04140625 4.69482422 0.05126953 C5.95746094 0.07640625 5.95746094 0.07640625 7.24560547 0.10205078 C8.51984375 0.11558594 8.51984375 0.11558594 9.81982422 0.12939453 C11.9202043 0.15299431 14.02043991 0.18886595 16.12060547 0.22705078 C18.35163103 4.68910191 17.16406846 11.44612202 17.12060547 16.22705078 C10.19060547 16.22705078 3.26060547 16.22705078 -3.87939453 16.22705078 C-4.07470703 5.48486328 -4.07470703 5.48486328 -3.87939453 2.22705078 C-1.87939453 0.22705078 -1.87939453 0.22705078 0 0 Z " fill="#1C7AB7" transform="translate(639.87939453125,423.77294921875)"/>
</svg>
